<svg xmlns="http://www.w3.org/2000/svg" viewBox="0 0 800 480" width="100%" height="100%">
  <defs>
    <linearGradient id="lum-bg" x1="0%" y1="0%" x2="100%" y2="100%">
      <stop offset="0%" stop-color="#000000"/>
      <stop offset="50%" stop-color="#0f050d"/>
      <stop offset="100%" stop-color="#1c0816"/>
    </linearGradient>
    <linearGradient id="lum-grad" x1="0%" y1="0%" x2="100%" y2="0%">
      <stop offset="0%" stop-color="#e11d48"/>
      <stop offset="100%" stop-color="#9333ea"/>
    </linearGradient>
    <linearGradient id="g1" x1="0%" y1="0%" x2="100%" y2="100%"><stop offset="0%" stop-color="#dc2626"/><stop offset="100%" stop-color="#7c3aed"/></linearGradient>
    <linearGradient id="g2" x1="0%" y1="0%" x2="100%" y2="100%"><stop offset="0%" stop-color="#f59e0b"/><stop offset="100%" stop-color="#e11d48"/></linearGradient>
  </defs>
  <rect width="800" height="480" fill="url(#lum-bg)"/>
  <circle cx="120" cy="100" r="150" fill="rgba(225, 29, 72, 0.12)"/>
  <circle cx="700" cy="380" r="160" fill="rgba(147, 51, 234, 0.12)"/>
  <g transform="translate(40, 30)">
    <rect width="720" height="420" rx="14" fill="#090307" stroke="rgba(225, 29, 72, 0.3)" stroke-width="1.5"/>
    <path d="M0,14 Q0,0 14,0 L706,0 Q720,0 720,14 L720,44 L0,44 Z" fill="#160611"/>
    <circle cx="24" cy="22" r="5.5" fill="#EF4444"/><circle cx="40" cy="22" r="5.5" fill="#F59E0B"/><circle cx="56" cy="22" r="5.5" fill="#10B981"/>
    <text x="360" y="26" fill="#f43f5e" font-family="sans-serif" font-size="12" font-weight="700" text-anchor="middle">🎨 LUMINA — AI Visual Asset Exploration Platform</text>
    
    <g transform="translate(24, 60)">
      <text x="0" y="22" fill="#FFFFFF" font-family="sans-serif" font-size="18" font-weight="900">LUMINA AI EXPLORER</text>
      <rect x="220" y="4" width="60" height="24" rx="6" fill="#e11d48"/><text x="250" y="20" fill="#FFFFFF" font-family="sans-serif" font-size="10" font-weight="700" text-anchor="middle">GRID</text>
      <rect x="288" y="4" width="74" height="24" rx="6" fill="#1a0614"/><text x="325" y="20" fill="#fda4af" font-family="sans-serif" font-size="10" text-anchor="middle">MASONRY</text>
      <rect x="370" y="4" width="74" height="24" rx="6" fill="#1a0614"/><text x="407" y="20" fill="#fda4af" font-family="sans-serif" font-size="10" text-anchor="middle">LIGHTBOX</text>
      <rect x="460" y="4" width="212" height="26" rx="6" fill="#170512" stroke="rgba(255,255,255,0.08)" stroke-width="1"/>
      <text x="474" y="21" fill="#fda4af" font-family="sans-serif" font-size="10">🔍 Debounced AI asset search...</text>
    </g>

    <g transform="translate(24, 100)">
      <rect x="0" y="0" width="155" height="185" rx="8" fill="url(#g1)"/>
      <rect x="8" y="135" width="139" height="42" rx="4" fill="rgba(0,0,0,0.8)"/>
      <text x="16" y="152" fill="#FFFFFF" font-family="sans-serif" font-size="10" font-weight="700">Cyberpunk Ronin</text>
      <text x="16" y="167" fill="#fda4af" font-family="sans-serif" font-size="8.5">Midjourney v6 • 4K HDR</text>

      <rect x="172" y="0" width="155" height="185" rx="8" fill="url(#g2)"/>
      <rect x="180" y="135" width="139" height="42" rx="4" fill="rgba(0,0,0,0.8)"/>
      <text x="188" y="152" fill="#FFFFFF" font-family="sans-serif" font-size="10" font-weight="700">Solar Eclipse Neo</text>
      <text x="188" y="167" fill="#fda4af" font-family="sans-serif" font-size="8.5">Stable Diffusion XL</text>

      <!-- Lightbox preview -->
      <rect x="344" y="0" width="328" height="280" rx="10" fill="#0a0207" stroke="#e11d48" stroke-width="1.5"/>
      <rect x="10" y="10" width="308" height="160" rx="6" fill="url(#lum-grad)"/>
      <text x="20" y="195" fill="#FFFFFF" font-family="sans-serif" font-size="14" font-weight="800">Interactive Glassmorphic Lightbox</text>
      <text x="20" y="214" fill="#fda4af" font-family="sans-serif" font-size="10">250% Zoom • CSS Filter Presets (Cyber, Noir, Sepia) • Autoplay Slideshow</text>
      
      <rect x="20" y="230" width="80" height="24" rx="4" fill="#e11d48"/>
      <text x="60" y="246" fill="#FFFFFF" font-family="sans-serif" font-size="9.5" font-weight="700" text-anchor="middle">▶ Slideshow</text>
      
      <rect x="108" y="230" width="75" height="24" rx="4" fill="#1c0816" stroke="#e11d48" stroke-width="0.8"/>
      <text x="145" y="246" fill="#fda4af" font-family="sans-serif" font-size="9.5" text-anchor="middle">🔍 Zoom 2.5x</text>

      <rect x="190" y="230" width="120" height="24" rx="4" fill="#1c0816"/>
      <text x="250" y="246" fill="#fda4af" font-family="sans-serif" font-size="9.5" text-anchor="middle">⬇ High-Res Download</text>
    </g>

    <g transform="translate(24, 300)">
      <rect width="328" height="80" rx="8" fill="#13050e" stroke="rgba(255,255,255,0.06)" stroke-width="1"/>
      <text x="16" y="26" fill="#FFFFFF" font-family="sans-serif" font-size="11" font-weight="700">⚡ Modern Vanilla JS &amp; CSS Grid</text>
      <text x="16" y="45" fill="#fda4af" font-family="sans-serif" font-size="9.5">Responsive fluid auto-fill • Multi-layout switcher • Zero external dependencies</text>
      <text x="16" y="62" fill="#fb7185" font-family="monospace" font-size="9">60 FPS Hardware-Accelerated Micro-Animations</text>
    </g>
  </g>
</svg>